<svg xmlns="http://www.w3.org/2000/svg" style="display: none;">
  <symbol id="search" viewBox="0 0 19 19">
    <path fill="currentColor" fill-rule="evenodd" clip-rule="evenodd"
      d="M8.5 0C3.80558 0 0 3.80558 0 8.5C0 13.1944 3.80558 17 8.5 17C10.4845 17 12.3102 16.3199 13.7567 15.18L14.1601 15.5742L17.2929 18.7071L17.3871 18.7903C17.7794 19.0953 18.3466 19.0676 18.7071 18.7071C19.0976 18.3166 19.0976 17.6834 18.7071 17.2929L15.5661 14.1518L15.1721 13.7668C16.3167 12.3187 17 10.4892 17 8.5C17 3.80558 13.1944 0 8.5 0ZM8.5 2C12.0899 2 15 4.91015 15 8.5C15 12.0899 12.0899 15 8.5 15C4.91015 15 2 12.0899 2 8.5C2 4.91015 4.91015 2 8.5 2Z"
    />
  </symbol>
  
  <symbol id="arrow-down" viewBox="0 0 10 6">
    <path d="M9.70711 0.292893C10.0676 0.653377 10.0953 1.22061 9.7903 1.6129L9.70711 1.70711L5.70711 5.70711C5.34662 6.06759 4.77939 6.09532 4.3871 5.7903L4.29289 5.70711L0.292893 1.70711C-0.0976305 1.31658 -0.0976305 0.683418 0.292893 0.292893C0.653378 -0.0675907 1.22061 -0.0953203 1.6129 0.209705L1.70711 0.292893L5 3.585L8.29289 0.292893C8.65338 -0.0675907 9.22061 -0.0953203 9.6129 0.209705L9.70711 0.292893Z" fill="currentColor"/>
  </symbol>

  <symbol id="dashboard" viewBox="0 0 18 18">
    <path fill="currentColor" fill-rule="evenodd" clip-rule="evenodd" d="M3 0C1.34315 0 0 1.34315 0 3V5C0 6.65685 1.34315 8 3 8H5C6.65685 8 8 6.65685 8 5V3C8 1.34315 6.65685 0 5 0H3ZM13 0C11.3431 0 10 1.34315 10 3V5C10 6.65685 11.3431 8 13 8H15C16.6569 8 18 6.65685 18 5V3C18 1.34315 16.6569 0 15 0H13ZM0 13C0 11.3431 1.34315 10 3 10H5C6.65685 10 8 11.3431 8 13V15C8 16.6569 6.65685 18 5 18H3C1.34315 18 0 16.6569 0 15V13ZM13 10C11.3431 10 10 11.3431 10 13V15C10 16.6569 11.3431 18 13 18H15C16.6569 18 18 16.6569 18 15V13C18 11.3431 16.6569 10 15 10H13Z"/>
  </symbol>

  <symbol id="projects" viewBox="0 0 18 19">
    <path fill="currentColor" fill-rule="evenodd" clip-rule="evenodd" d="M9.15114 0.292985C8.51128 -0.0976613 7.70669 -0.0976618 7.06682 0.292984L0.957841 4.02262C-0.331712 4.80991 -0.316143 6.68789 0.986286 7.45369L7.11821 11.0592C7.74533 11.4279 8.52321 11.427 9.1495 11.0569L15.2427 7.45582C16.5418 6.68811 16.5552 4.81329 15.2673 4.02702L9.15114 0.292985ZM15.712 9.12762C16.1922 8.85476 16.8027 9.02281 17.0755 9.50299C17.3289 9.94886 17.2021 10.5071 16.7982 10.803L16.7002 10.8665L10.1056 14.6139C9.27586 15.0897 8.26318 15.1224 7.40534 14.7102L7.22402 14.6151L0.707216 10.8637C0.228571 10.5882 0.0639145 9.9768 0.339445 9.49815C0.595296 9.0537 1.14073 8.87998 1.60057 9.07803L1.705 9.13038L8.21841 12.8798C8.45868 13.0169 8.75177 13.0337 9.00723 12.9292L9.11415 12.877L15.712 9.12762ZM15.6151 12.7875C16.0953 12.5146 16.7057 12.6827 16.9786 13.1628C17.232 13.6087 17.1051 14.1669 16.7013 14.4629L16.6032 14.5263L10.0087 18.2738C9.1789 18.7495 8.16622 18.7823 7.30839 18.3701L7.12706 18.2749L0.610259 14.5236C0.131614 14.248 -0.0330421 13.6367 0.242489 13.158C0.498339 12.7136 1.04377 12.5398 1.50362 12.7379L1.60805 12.7902L8.12145 16.5397C8.36173 16.6767 8.65481 16.6936 8.91027 16.589L9.01719 16.5368L15.6151 12.7875Z"/>
  </symbol>

  <symbol id="vacations" viewBox="0 0 21 21">
    <path fill="currentColor" fill-rule="evenodd" clip-rule="evenodd" d="M13.5066 7.79191L13.4969 3.00276C13.4974 1.34482 12.1559 0.00045541 10.5007 3.80755e-05C8.84552 -0.000379259 7.50339 1.34331 7.50297 3.00125L7.49337 7.79191L1.09998 11.0137C0.425487 11.3535 0 12.0444 0 12.7997V13.8043C0 14.426 0.561381 14.8971 1.17369 14.7891L7.49245 13.6746V16.2007L6.45276 17.4579C6.15621 17.8164 5.99396 18.2672 5.99396 18.7325V19.7663C5.99396 20.4018 6.57916 20.8762 7.20099 20.7446L10.5007 20.0463L13.7769 20.7431C14.399 20.8754 14.9849 20.401 14.9849 19.765V18.7256C14.9849 18.2645 14.8256 17.8175 14.5339 17.4604L13.5075 16.2039V13.6746L19.8263 14.7891C20.4386 14.8971 21 14.426 21 13.8043V12.7997C21 12.0444 20.5745 11.3535 19.9 11.0137L13.5066 7.79191Z"/>
  </symbol>

  <symbol id="employees" viewBox="0 0 23 15">
    <path fill="currentColor" fill-rule="evenodd" clip-rule="evenodd" d="M13.027 4.03308C13.7517 6.42769 12.8183 9.01313 10.7294 10.3971C12.4634 11.0352 13.9621 12.1837 15.027 13.6906C15.19 13.9215 15.2104 14.2237 15.0801 14.4744C14.9497 14.725 14.6902 14.8823 14.4071 14.8823L0.758285 14.8829C0.475181 14.8829 0.21565 14.7256 0.0852411 14.4749C-0.0451682 14.2243 -0.0247343 13.9221 0.138232 13.6912C1.20309 12.184 2.702 11.0353 4.43628 10.3971C2.34738 9.01313 1.41395 6.42769 2.13865 4.03308C2.86334 1.63846 5.07507 0 7.58282 0C10.0906 0 12.3023 1.63846 13.027 4.03308ZM20.4726 3.30772C21.6404 5.8439 20.7852 8.85062 18.456 10.3971C20.1901 11.0352 21.6888 12.1837 22.7536 13.6906C22.9166 13.9215 22.9371 14.2237 22.8067 14.4743C22.6763 14.725 22.4169 14.8823 22.1338 14.8823L17.8951 14.8829C17.6006 14.8829 17.3326 14.7128 17.208 14.4465C16.6254 13.2007 15.8052 12.0799 14.7931 11.1467C14.778 11.1327 14.7643 11.118 14.7506 11.1032C14.4859 10.8622 14.2093 10.6345 13.9219 10.4211C13.6069 10.1874 13.5228 9.75266 13.728 9.41891C15.2618 6.92095 15.1176 3.74356 13.364 1.39396C13.2149 1.19423 13.174 0.934126 13.2545 0.698436C13.335 0.462746 13.5266 0.281676 13.7669 0.214263C16.4607 -0.540433 19.3047 0.771547 20.4726 3.30772Z"/>
  </symbol>

  <symbol id="support" viewBox="0 0 20 20">
    <path 
      fill="currentColor"
      fill-rule="evenodd" 
      clip-rule="evenodd" 
      d="M10.1169 8.94692e-05H9.61693C8.14208 -0.00366514 6.68472 0.341523 5.36607 1.00758C2.15179 2.61401 0.118318 5.90218 0.116926 9.49979L0.123219 9.86813C0.163813 10.9716 0.399414 12.0595 0.81816 13.0807L0.923926 13.3252L0.228596 15.0033C-0.0843566 15.7584 -0.0756534 16.6085 0.252693 17.357L0.328166 17.5164C1.04434 18.9219 2.74201 19.541 4.20512 18.8992L5.80293 18.1972L6.03643 18.2989C7.17113 18.7642 8.38839 19.0034 9.61953 19.0002C13.2149 18.9988 16.5031 16.9653 18.1114 13.7472C18.7756 12.4324 19.1208 10.975 19.117 9.49761L19.117 9.00017C18.8542 4.21071 15.1382 0.410916 10.4391 0.020075L10.1169 8.94692e-05ZM9.61438 2.00009L10.0749 1.99917L10.0618 1.99857C13.8687 2.20867 16.9084 5.2484 17.1185 9.05527L17.117 9.50017C17.12 10.6652 16.8484 11.8118 16.3243 12.8493C15.0527 15.3937 12.4568 16.9991 9.61654 17.0002C8.45195 17.0032 7.30531 16.7316 6.26778 16.2076C6.0013 16.073 5.68862 16.0645 5.41522 16.1844L3.40171 17.0676C2.89594 17.2895 2.30609 17.0593 2.08423 16.5536C1.97478 16.3041 1.97188 16.0207 2.0762 15.769L2.94073 13.683C3.05229 13.4139 3.0409 13.1094 2.90952 12.8493C2.38547 11.8118 2.11389 10.6651 2.11692 9.50278C2.11802 6.66035 3.7234 4.06442 6.26398 2.79468C7.30528 2.26873 8.45194 1.99713 9.61438 2.00009Z"
    />
  </symbol>

  <symbol id="logout" viewBox="0 0 20 20">
    <path
      fill="currentColor"
      fill-rule="evenodd"
      clip-rule="evenodd"
      d="M19 0C19.5128 0 19.9355 0.38604 19.9933 0.883379L20 1V19C20 19.5128 19.614 19.9355 19.1166 19.9933L19 20H13C12.4477 20 12 19.5523 12 19C12 18.4872 12.386 18.0645 12.8834 18.0067L13 18H18V2H13C12.4872 2 12.0645 1.61396 12.0067 1.11662L12 1C12 0.487164 12.386 0.0644928 12.8834 0.00672773L13 0H19ZM8.6129 4.2097L8.70711 4.29289L13.7071 9.29289C14.0676 9.65338 14.0953 10.2206 13.7903 10.6129L13.7071 10.7071L8.70711 15.7071C8.31658 16.0976 7.68342 16.0976 7.29289 15.7071C6.93241 15.3466 6.90468 14.7794 7.2097 14.3871L7.29289 14.2929L10.585 11H1C0.447715 11 0 10.5523 0 10C0 9.48716 0.38604 9.06449 0.883379 9.00673L1 9H10.585L7.29289 5.70711C6.93241 5.34662 6.90468 4.77939 7.2097 4.3871L7.29289 4.29289C7.62334 3.96245 8.12751 3.91161 8.5114 4.14038L8.6129 4.2097Z"
    />
  </symbol>

  <symbol id="plus" viewBox="0 0 14 14">
  <path
    fill="currentColor"
    fill-rule="evenodd"
    clip-rule="evenodd"
    d="M7.99327 0.883379C7.93551 0.38604 7.51284 0 7 0C6.44772 0 6 0.447715 6 1V6H1L0.883379 6.00673C0.38604 6.06449 0 6.48716 0 7C0 7.55228 0.447715 8 1 8H6V13L6.00673 13.1166C6.06449 13.614 6.48716 14 7 14C7.55228 14 8 13.5523 8 13V8H13L13.1166 7.99327C13.614 7.93551 14 7.51284 14 7C14 6.44772 13.5523 6 13 6H8V1L7.99327 0.883379Z"
  />
</symbol>

<symbol id="filter" viewBox="0 0 24 24">
  <path
    fill="currentColor"
    fill-rule="evenodd"
    clip-rule="evenodd"
    d="M6 2H17.0926C17.8274 2 18.5366 2.26964 19.0857 2.75777C20.3241 3.85853 20.4356 5.75474 19.3349 6.99309L14.5463 12.379V18.7639C14.5463 19.0598 14.4912 19.3523 14.3845 19.6269L14.2948 19.8292C13.7065 21.0058 12.2757 21.4827 11.0991 20.8944L10.2047 20.4472C9.18832 19.939 8.54631 18.9002 8.54631 17.7639V12.381L3.75777 6.99309C3.31845 6.49885 3.05611 5.87498 3.00804 5.21952L3 5C3 3.34315 4.34315 2 6 2ZM17.0926 4H6C5.44772 4 5 4.44772 5 5C5 5.24491 5.08988 5.48131 5.25259 5.66436L10.2937 11.3356C10.4564 11.5187 10.5463 11.7551 10.5463 12V17.7639C10.5463 18.1427 10.7603 18.489 11.0991 18.6584L11.9935 19.1056C12.1822 19.1999 12.4116 19.1234 12.506 18.9348C12.5325 18.8817 12.5463 18.8232 12.5463 18.7639V12C12.5463 11.7551 12.6362 11.5187 12.7989 11.3356L17.84 5.66436C18.207 5.25158 18.1698 4.61951 17.757 4.25259C17.5739 4.08988 17.3375 4 17.0926 4Z"
  />
</symbol>

<symbol id="more" viewBox="0 0 4 18">
  <path
    fill="currentColor"
    fill-rule="evenodd"
    clip-rule="evenodd"
    d="M4 2C4 3.10457 3.10457 4 2 4C0.895431 4 0 3.10457 0 2C0 0.895431 0.895431 0 2 0C3.10457 0 4 0.895431 4 2ZM4 9C4 10.1046 3.10457 11 2 11C0.895431 11 0 10.1046 0 9C0 7.89543 0.895431 7 2 7C3.10457 7 4 7.89543 4 9ZM2 18C3.10457 18 4 17.1046 4 16C4 14.8954 3.10457 14 2 14C0.895431 14 0 14.8954 0 16C0 17.1046 0.895431 18 2 18Z"
  />
</symbol>

  <symbol id="arrow-right" viewBox="0 0 16 12">
    <path
      fill="currentColor"
      fill-rule="evenodd"
      clip-rule="evenodd"
      d="M15.7903 5.3871L15.7071 5.29289L10.7071 0.292893C10.3166 -0.0976311 9.68342 -0.0976311 9.29289 0.292893C8.93241 0.653377 8.90468 1.22061 9.2097 1.6129L9.29289 1.70711L12.585 5H1C0.447715 5 0 5.44772 0 6C0 6.51284 0.38604 6.93551 0.883379 6.99327L1 7H12.585L9.29289 10.2929C8.93241 10.6534 8.90468 11.2206 9.2097 11.6129L9.29289 11.7071C9.65338 12.0676 10.2206 12.0953 10.6129 11.7903L10.7071 11.7071L15.7071 6.70711C16.0676 6.34662 16.0953 5.77939 15.7903 5.3871Z"
    />
  </symbol>

  <symbol id="arrow-left" viewBox="0 0 16 12">
    <path
      fill="currentColor"
      d="M0.209705 5.3871L0.292893 5.29289L5.29289 0.292893C5.68342 -0.0976311 6.31658 -0.0976311 6.70711 0.292893C7.06759 0.653377 7.09532 1.22061 6.7903 1.6129L6.70711 1.70711L3.415 5H15C15.5523 5 16 5.44772 16 6C16 6.51284 15.614 6.93551 15.1166 6.99327L15 7H3.415L6.70711 10.2929C7.06759 10.6534 7.09532 11.2206 6.7903 11.6129L6.70711 11.7071C6.34662 12.0676 5.77939 12.0953 5.3871 11.7903L5.29289 11.7071L0.292893 6.70711C-0.0675907 6.34662 -0.0953203 5.77939 0.209705 5.3871Z"
    />
  </symbol>

  <symbol id="close" viewBox="0 0 16 16">
    <path
      fill="currentColor"
      fill-rule="evenodd"
      clip-rule="evenodd"
      d="M15.5046 0.312823C15.0646 -0.103614 14.3761 -0.104363 13.9352 0.311116L7.96364 5.93842L1.99207 0.311116C1.55118 -0.104364 0.862676 -0.103614 0.422684 0.312824L0.357257 0.374748C-0.119801 0.826267 -0.118973 1.58605 0.359065 2.03652L6.23166 7.57055L0.359065 13.1046C-0.118973 13.5551 -0.1198 14.3148 0.357258 14.7664L0.422686 14.8283C0.862677 15.2447 1.55118 15.2455 1.99208 14.83L7.96364 9.20269L13.9352 14.83C14.3761 15.2455 15.0646 15.2447 15.5046 14.8283L15.57 14.7664C16.0471 14.3148 16.0463 13.5551 15.5682 13.1046L9.69563 7.57055L15.5682 2.03652C16.0463 1.58604 16.0471 0.826266 15.57 0.374747L15.5046 0.312823Z"
    />
  </symbol>

  <symbol id="chevron-down" viewBox="0 0 12 8">
    <path
      fill="currentColor"
      fill-rule="evenodd"
      clip-rule="evenodd"
      d="M6 6.5C5.793 6.5 5.586 6.421 5.414 6.25L0.414 1.25C0.149 0.985 0.149 0.515 0.414 0.25C0.679 -0.015 1.149 -0.015 1.414 0.25L6 4.836L10.586 0.25C10.851 -0.015 11.321 -0.015 11.586 0.25C11.851 0.515 11.851 0.985 11.586 1.25L6.586 6.25C6.414 6.421 6.207 6.5 6 6.5Z"
    />
  </symbol>

  <symbol id="trash" viewBox="0 0 32 32">
    <path
      fill="currentColor"
      fill-rule="evenodd"
      clip-rule="evenodd"
      d="M12.84 4C11.37 4 10.22 5.15 10.22 6.62V7.11H6.11C4.39 7.11 3 8.5 3 10.22V10.67C3 11.4 3.6 12 4.33 12H27.67C28.4 12 29 11.4 29 10.67V10.22C29 8.5 27.61 7.11 25.89 7.11H21.78V6.62C21.78 5.15 20.63 4 19.16 4H12.84ZM12 6.67C12 6.3 12.3 6 12.67 6H19.33C19.7 6 20 6.3 20 6.67V7.11H12V6.67ZM6.56 13L8.18 26.03C8.35 27.39 9.51 28.44 10.89 28.44H21.11C22.49 28.44 23.65 27.39 23.82 26.03L25.44 13H6.56ZM12.67 24.44C12.18 24.48 11.75 24.11 11.71 23.62L11.09 16.53C11.05 16.04 11.42 15.61 11.91 15.57C12.4 15.53 12.83 15.9 12.87 16.39L13.49 23.48C13.53 23.97 13.16 24.4 12.67 24.44ZM16 24.44C15.51 24.44 15.11 24.04 15.11 23.56V16.44C15.11 15.95 15.51 15.56 16 15.56C16.49 15.56 16.89 15.95 16.89 16.44V23.56C16.89 24.04 16.49 24.44 16 24.44ZM19.33 24.44C18.84 24.4 18.47 23.97 18.51 23.48L19.13 16.39C19.17 15.9 19.6 15.53 20.09 15.57C20.58 15.61 20.95 16.04 20.91 16.53L20.29 23.62C20.25 24.11 19.82 24.48 19.33 24.44Z"
    />
  </symbol>

  <symbol id="edit" viewBox="0 0 22 22">
    <path
      fill="currentColor"
      fill-rule="evenodd"
      clip-rule="evenodd"
      d="M14.8787 0.87868L6.29289 9.46447C6.10536 9.652 6 9.90636 6 10.1716V14.1716C6 14.7239 6.44772 15.1716 7 15.1716H11C11.2652 15.1716 11.5196 15.0662 11.7071 14.8787L20.2929 6.29289C21.4645 5.12132 21.4645 3.22183 20.2929 2.05025L19.1213 0.87868C17.9497 -0.292893 16.0503 -0.292893 14.8787 0.87868ZM18.8787 3.46447L18.9619 3.55867C19.2669 3.95096 19.2392 4.5182 18.8787 4.87868L10.584 13.1716H8V10.5856L16.2929 2.29289C16.6834 1.90237 17.3166 1.90237 17.7071 2.29289L18.8787 3.46447ZM10.0308 2.17157C10.0308 1.61929 9.5831 1.17157 9.03081 1.17157H5L4.78311 1.17619C2.12231 1.28975 0 3.48282 0 6.17157V16.1716L0.00461951 16.3885C0.118182 19.0493 2.31125 21.1716 5 21.1716H15L15.2169 21.167C17.8777 21.0534 20 18.8603 20 16.1716V11.2533L19.9933 11.1366C19.9355 10.6393 19.5128 10.2533 19 10.2533C18.4477 10.2533 18 10.701 18 11.2533V16.1716L17.9949 16.3478C17.9037 17.9227 16.5977 19.1716 15 19.1716H5L4.82373 19.1665C3.24892 19.0752 2 17.7693 2 16.1716V6.17157L2.00509 5.9953C2.09634 4.42049 3.40232 3.17157 5 3.17157H9.03081L9.14743 3.16485C9.64477 3.10708 10.0308 2.68441 10.0308 2.17157Z"
    />
  </symbol>

</svg>